<svg width="38" height="38" viewBox="0 0 38 38" fill="none" xmlns="http://www.w3.org/2000/svg">
<path d="M15.4012 13.148L19.103 16.8498C19.6785 17.4217 20.4569 17.7427 21.2682 17.7427C22.0796 17.7427 22.858 17.4217 23.4334 16.8498L33.8613 6.40612C33.9345 6.33824 34.0306 6.30052 34.1304 6.30052C34.2303 6.30052 34.3264 6.33824 34.3996 6.40612L36.0732 8.07971C36.2141 8.22221 36.4089 8.30137 36.6115 8.29504C36.7076 8.3172 36.8042 8.3172 36.9013 8.29504C37.049 8.23473 37.1743 8.1299 37.2597 7.99512C37.3451 7.86033 37.3864 7.70229 37.3779 7.54295V1.39962C37.3779 1.19596 37.297 1.00063 37.1529 0.856623C37.0089 0.71261 36.8136 0.631705 36.6099 0.631705H30.4666C30.3049 0.619626 30.1434 0.659081 30.0055 0.744413C29.8675 0.829746 29.7601 0.956572 29.6987 1.10671C29.6393 1.24582 29.6236 1.39976 29.6539 1.54798C29.6842 1.69621 29.7589 1.83169 29.8681 1.93637L31.681 3.68754C31.7178 3.72204 31.7472 3.76373 31.7673 3.81003C31.7873 3.85633 31.7977 3.90625 31.7977 3.95671C31.7977 4.00716 31.7873 4.05708 31.7673 4.10338C31.7472 4.14968 31.7178 4.19137 31.681 4.22587L27.0735 8.83337C22.9379 -0.972212 9.74078 -2.62363 3.31878 5.85829C1.42829 8.35348 0.440778 11.4165 0.517866 14.546C0.521033 15.059 0.551644 15.571 0.609699 16.0819C0.655185 16.4563 0.836867 16.8009 1.12011 17.05C1.40336 17.2991 1.76836 17.4352 2.14553 17.4325H2.3292C2.52996 17.4096 2.72425 17.3475 2.90093 17.2494C3.07761 17.1514 3.23322 17.0195 3.35883 16.8612C3.48444 16.703 3.57758 16.5215 3.63293 16.3271C3.68828 16.1328 3.70474 15.9295 3.68137 15.7288C3.65746 15.309 3.65746 14.8882 3.68137 14.4685C3.95528 6.12745 13.1576 1.20804 20.2446 5.61446C22.3318 6.91249 23.9161 8.88095 24.7381 11.1973L21.5445 14.44C21.4687 14.5089 21.3699 14.5472 21.2674 14.5472C21.165 14.5472 21.0662 14.5089 20.9904 14.44L17.2901 10.7065C16.7146 10.1345 15.9362 9.81355 15.1249 9.81355C14.3136 9.81355 13.5352 10.1345 12.9597 10.7065L0.980199 22.6701C0.69318 22.9592 0.532768 23.3505 0.534253 23.7579C0.535737 24.1653 0.698997 24.5554 0.988116 24.8425C1.27724 25.1295 1.66853 25.2899 2.07592 25.2884C2.48331 25.2869 2.87343 25.1237 3.16045 24.8345L4.05187 23.9447C5.3817 25.378 6.98935 26.5256 8.77691 27.3178C10.5645 28.1099 12.4945 28.5299 14.4496 28.5522C17.503 28.559 20.4727 27.5547 22.8951 25.6959C22.9662 25.6366 23.0559 25.6042 23.1484 25.6042C23.241 25.6042 23.3307 25.6366 23.4018 25.6959L25.5519 27.846C25.604 27.8967 25.6405 27.9612 25.657 28.0319C25.6736 28.1026 25.6695 28.1766 25.6454 28.245C25.4991 28.6544 25.4721 29.0968 25.5674 29.5208C25.6627 29.9449 25.8764 30.3332 26.1837 30.6406L32.1418 36.6145C33.7314 38.3641 36.6194 37.7355 37.3399 35.4825C37.5195 34.92 37.5331 34.3177 37.3792 33.7476C37.2254 33.1776 36.9104 32.664 36.4722 32.2683L30.5284 26.2643C30.0945 25.8357 29.5106 25.5932 28.9007 25.5882C28.6368 25.5882 28.3808 25.6341 28.1328 25.726C28.0644 25.7503 27.9906 25.7546 27.9199 25.7384C27.8492 25.7221 27.7846 25.6859 27.7338 25.6341L25.5836 23.484C25.5223 23.4138 25.4884 23.3238 25.4884 23.2306C25.4884 23.1374 25.5223 23.0474 25.5836 22.9773C26.5216 21.7383 27.2481 20.3526 27.7338 18.8765C27.8055 18.6826 27.8374 18.4762 27.8274 18.2697C27.8175 18.0632 27.7659 17.8608 27.6759 17.6747C27.5858 17.4886 27.4591 17.3226 27.3034 17.1866C27.1477 17.0506 26.9661 16.9475 26.7695 16.8834C26.573 16.8193 26.3655 16.7956 26.1595 16.8136C25.9536 16.8316 25.7534 16.891 25.5709 16.9883C25.3885 17.0855 25.2276 17.2186 25.0978 17.3795C24.968 17.5405 24.8721 17.726 24.8157 17.9249C24.1027 20.0997 22.721 21.9937 20.8677 23.3366C19.0144 24.6796 16.7842 25.4027 14.4955 25.403C12.9519 25.3921 11.427 25.0634 10.016 24.4374C8.6049 23.8114 7.33788 22.9016 6.29387 21.7645L14.8945 13.148C14.9647 13.0866 15.0547 13.0528 15.1479 13.0528C15.241 13.0528 15.3311 13.0866 15.4012 13.148Z" fill="#0C47A0"/>
</svg>
